<?xml version="1.0" encoding="utf-8"?>
<!-- Generator: Adobe Illustrator 19.1.0, SVG Export Plug-In . SVG Version: 6.00 Build 0)  -->
<svg version="1.1" id="Layer_1" xmlns="http://www.w3.org/2000/svg" xmlns:xlink="http://www.w3.org/1999/xlink" x="0px" y="0px"
	 viewBox="0 0 1000 480.7" style="enable-background:new 0 0 1000 480.7;" xml:space="preserve">
<style type="text/css">
	.st0{fill:#FAFAFA;}
</style>
<g>
	<g>
		<path class="st0" d="M139.8,132.1l7.4-7.9c-0.2-0.6-1.4-1.2-3.8-1.6c-9.5-0.3-15.7-0.4-18.7-0.2c-7.2,0.6-13,2.6-17.4,5.9
			c-1.3,1.8-3.3,4.5-6.1,8c-1.8,0-2.7-0.7-2.7-2.1c3-9.3,7.9-16.2,14.7-20.8c7.4-3.8,20.8-5.5,40.2-5.2c2.5,0,5.2,0.6,7.9,1.8
			c0.9,0.6,1.2,2.2,0.7,4.7c-2.5,7.7-8.8,16.4-18.7,26.2c-12,11.5-19.5,19.7-22.4,24.4c-8.5,13.9-12.8,28-12.8,42.1
			c0,9.6,2.2,18.1,6.6,25.3c5.7,9.3,15.9,14,30.5,14c16.4,0,31.2-6,44.4-18c12.3-10.9,21.1-24.6,26.3-41.1c0.9-0.9,1.8-1.2,2.8-0.7
			c0.3,0.8,0.1,3.4-0.7,8c-5.6,19.2-13.5,35.6-23.7,49.2c-12.7,16.9-27.5,26.9-44.5,30c-4.1,0.8-8,1.3-11.8,1.3
			c-14.3,0-25-4.9-32.1-14.7c-6.7-9.3-10-21.2-10-35.8c0-4.4,0.3-8.7,1-12.9C101.4,184.4,115.7,157.7,139.8,132.1z M146.5,187.6
			l0.2-1.4c4.4-6.9,9.5-14.3,15.4-22.1l1.8,0.5c7.6,6.5,13.9,11,18.7,13.5c0.2,1.5-0.2,3-1,4.4s-1.7,2.9-2.5,4.3
			c-2,3.3-5.5,8.1-10.6,14.4c-1.5,0.2-5.1-1.2-10.6-4C155.1,195.4,151.3,192.2,146.5,187.6z"/>
		<path class="st0" d="M502.2,63.8l-0.5,47.4c-0.2,14.4-4.1,25-11.8,31.7c-1.8,1.5-7.2,5.1-16.2,10.6c-6.9,4.2-12.5,8.7-16.7,13.3
			c8.2-0.5,20.1-0.5,35.9,0c1.8,0.2,3,1,3.6,2.5c-0.3,3.2-1.7,6.5-4.3,10.2c-2,2.8-4.1,5.8-6.3,8.8c-7.2,10.1-16.4,18.8-27.5,26.2
			c-9.9,6.5-18.3,11.2-25.1,14.2c-4.2,1.8-13.1,4.7-26.7,8.8c-15.9,5.1-36.2,8-60.8,8.8c-26.5,0.8-45.4,0.5-56.9-0.9
			c-16.7-2.2-29.3-6.7-37.9-13.5c-6.6-5.2-10.5-14.2-11.8-27c-1-8.8-1.4-14.1-1.2-16l0.9-45.4c-0.8-4.8-0.2-10,1.8-15.8l5.4-15.1
			c0-0.8,0.5-1.3,1.5-1.5c1.1-0.2,1.8,0.1,2.1,0.7l-2.4,56.8c-0.6,12.9,0.6,22.8,3.6,29.6c1.8,3.6,4.8,7.2,9.2,10.6
			c11.9,6.8,31.2,10.5,58,11.1c26.8,0.7,38.8,1,35.9,1c23.8-0.3,44.4-2.1,61.8-5.4c12.4-2.5,22.3-5.4,29.8-8.5
			c6.8-2.8,14.9-7.5,24.4-14c5.5-3.6,9.2-8.4,11.3-14.2c-1.8,0-6.8,0.2-15.1,0.5c-8.3,0.3-14.5,0.5-18.8,0.5c-3.6,0-5.8-0.8-6.6-2.5
			c0-3,2.7-8.4,8-16.2c4.3-4.8,10.4-9.7,18.2-14.5c12.5-7.8,19.1-12,19.9-12.6c1.9-1.2,3.1-4,3.6-8.3c0.2-3.3,0.3-6.5,0.5-9.7
			L490,77.5l0.7-5.5l8.8-23.1c0.2-0.2,0.8-0.7,1.8-1.5c1.2,0,1.8,0.6,1.8,1.7L502.2,63.8z"/>
		<path class="st0" d="M538.6,120.9c-0.5,2.8-1.1,7-1.7,12.6c-0.6,7.1-1,16.9-1.2,29.3c0,14.3-0.2,24.3-0.5,30
			c-0.6,12.2-3.9,24.9-9.9,38.1c-1.2,2.5-2.2,3.7-3.1,3.7c-0.5,0-0.9-0.2-1.4-0.5c-1.1-0.6-1.5-2-1.2-4.3c1.2-4.2,2.2-14.9,3-31.9
			c-1.1-13.7-1.5-29.1-1.2-46.1c2.5-8.5,7-19.1,13.3-31.7C536.3,119.3,537.6,119.5,538.6,120.9z"/>
		<path class="st0" d="M608.6,310c-0.6-29.1-0.8-57.8-0.6-86.2c1.2-24.6,7.5-43.5,19.2-56.6c6.3-6.8,14.7-13.2,25.2-19.4l4.5-2.5
			c0.7-0.4,2.1-2.3,4.3-5.8c7.2-11.3,13.2-19.9,18-25.6l1.8-2.3l3.2,4.6v4.7l-4.7,4.6l5.5,3.3c4.9,2.9,8,5.3,9.2,7
			c3.5,6.4,2.2,12.5-3.9,18.5c-3.6,3.9-7.7,6.9-12.4,9.1c-2.1,0.8-6.2,1.7-12.5,2.7c-6.5,1.1-11.1,2.1-14,3.1
			c-13.4,4.5-23.3,12.3-29.7,23.2c-2.5,4.8-3.9,10.8-4,18c-1.1,15.7-1.6,37.6-1.6,65.6c-0.1,21.7-0.2,33.5-0.5,35.3
			c-0.5,3.5-1.3,7.9-2.5,13c-0.5,2.8-1.5,4.5-3,5.1c-0.5,0.4-0.8,0.4-1.2,0.1c-0.3-0.2-0.5-4.9-0.5-14
			C608.6,314.4,608.6,312.5,608.6,310z"/>
		<path class="st0" d="M708.2,68.5c3.8-5.2,9.5-7.3,17.1-6.3c2,0.5,3.5,1.3,4.6,2.7l1.6,2.1c2.1,2.6,3,6.4,2.8,11.4
			c3.2-2.8,7.6-5.3,13.3-7.3c6.2-0.9,10.6,1,13.3,5.8c2.1,5.2,1.5,10.4-1.6,15.8c-4.1,8.4-10.8,15.3-20.2,20.8
			c-5.8,4.1-13.8,6-24,5.9h-4.6l-11.9,0.2l-5.7,1.5c-7.8,2.2-11.8,3.2-12,3.2c-0.2,0-0.2-2-0.2-6.1V112l1.8-2.2
			c3.6-4.3,7.1-9.6,10.4-15.8C700.4,79.9,705.5,71.4,708.2,68.5z M724.3,79.2c-1.8-3.2-4.9-4.4-9.2-3.8c-1.6,0.5-3.5,2-5.8,4.5
			c-2.7,3.1-5.6,7.6-8.7,13.5c-3.8,7.2-7,12.4-9.4,15.6c-0.7,0.8-0.8,1.3-0.5,1.4c11.1-2.5,20.4-7.7,27.9-15.8
			c4.1-4.6,6.2-8.3,6.5-11.1C725.3,81.4,725,80,724.3,79.2z M747.6,84.2c-3.4-1.6-6.7-1.6-9.9,0.1c-1.9,1-6,5.2-12.1,12.5
			c-5,6.1-9.5,10.5-13.5,13.4c-0.2,0.2,0.7,0.2,2.7,0.1c11.2-0.4,19.8-2.8,26-7.3c5.4-3.6,8.6-7.8,9.6-12.6
			C750.9,87.7,750,85.7,747.6,84.2z"/>
		<path class="st0" d="M826.3,176.3c0.8,3.2,1.2,6.4,1.2,9.7c0,6.5-1.7,13.7-5,21.7c-0.3,0.6-3.6,7.5-9.9,20.6
			c-0.8,1.8-2.6,4-5.4,6.7c-7.4,2.3-18.7,5.3-34.1,8.9c-1.1,0.7-1.8,0.2-2.3-1.6c0.3-0.5,3-2.5,8.2-6.1c3.3-2.4,9.1-5.8,17.3-10.2
			c7.4-3.8,13-7.2,16.7-10.4c2.5-2.8,3.1-7.1,1.7-12.8c-1.8-6.8-7.2-12.4-16.4-16.7c-0.6-0.8-0.6-1.8,0-2.9c0.5-0.9,1-1.9,1.5-2.9
			c1.7-5.9,4-13.1,6.8-21.5c4.2,0.3,8.2,2.3,12,5.9C822,168,824.5,171.9,826.3,176.3z"/>
		<path class="st0" d="M899.5,80.3v-0.6c-1.2,2.2-3.1,5.1-5.9,8.5c-1.5,0-2.7-0.1-3.6-0.2c-6.6,0-12.2,2.8-16.6,8.3
			c-3.9,6.5-6.5,10.4-7.7,11.8c-3.5,4.8-6.9,7.7-10.4,8.8c-2.4,0.8-4.4,1.2-6.1,1.2c-3,0-5.3-1-6.9-3l0.5-1.5
			c2.4-4.4,6.1-9.9,11.2-16.5c1.8,0.9,3.6,1.4,5.2,1.4c2.5,0,4.8-0.9,7-2.8c3.2-4,8.1-9.9,14.9-17.8c5.8-6.6,12.2-9.9,18.9-9.7
			c1.4,0,2.8,0.7,4.3,2.2l-0.2,1.8C903.1,73.3,901.6,76,899.5,80.3z M879.8,120.9c-0.5,2.8-1,7-1.6,12.6c-0.7,7.1-1.1,16.9-1.3,29.3
			c0,14.3-0.2,24.3-0.5,30c-0.6,12.2-3.9,24.9-9.9,38.1c-1.1,2.5-2.1,3.7-3,3.7c-0.5,0-1-0.2-1.5-0.5c-1.1-0.6-1.5-2-1.2-4.3
			c1.2-4.2,2.3-14.9,3.1-31.9c-1.2-13.7-1.6-29.1-1.3-46.1c2.5-8.5,7-19.1,13.3-31.7C877.6,119.3,878.9,119.5,879.8,120.9z"/>
	</g>
	<g>
		<path class="st0" d="M98.6,365.5h31.3v74.7h-4.6V370H98.6V365.5z"/>
		<path class="st0" d="M205.1,365.4h4.5V378H221v18.5h13.9v43.7h-4.6v-39.1H207v39.1h-4.5v-43.7h13.9v-14h-11.3V365.4z"/>
		<path class="st0" d="M304.2,365.2h4.5v24.1h9.8l0-24.1h4.5l0,24.1h9.8v-24.1h4.6v28.6H323l-0.1,46.6h-4.5
			c0-30.8,0.1-46.3,0.1-46.6h-14.3V365.2z"/>
		<path class="st0" d="M419.3,365.4h4v74.8h-4.5v-68c0,0-6.6,6.4-19.5,19.1l-1.2,1.2h0c-1.3-1.3-2.3-2.4-3.1-3.2
			c0.4-0.4,4.4-4.4,12-11.8C414.5,370,418.6,366,419.3,365.4z"/>
		<path class="st0" d="M513.8,365.4h4.5V378h11.3v18.5h13.9v43.7h-4.6v-39.1h-23.3v39.1h-4.5v-43.7H525v-14h-11.3V365.4z"/>
		<path class="st0" d="M640.3,365.3h6.7v75.1h-6.6c-0.1,0-2.8-1.5-8.2-4.5l-13.3-8.7c0-0.1,0.5-0.9,1.5-2.5c1.6-2.7,3.1-5.9,4.6-9.8
			c1.6-4.6,2.4-8.5,2.4-11.7v-0.8c0-4.3-1.4-9.6-4.2-15.9c-1.1-2.5-2.6-5.1-4.3-7.9v-0.1L640.3,365.3z M625.2,380.2
			c4.5,8.5,6.8,16,6.8,22.6c0,6.5-2.2,14-6.7,22.5c10.7,6.9,16.2,10.4,16.4,10.5h0.8v-66.1h-0.9
			C630.9,376.7,625.4,380.2,625.2,380.2z"/>
		<path class="st0" d="M709.9,365.3h4.5v31.4h18.1v-31.4h4.5v35.9h-11.3l-0.1,39.1h-4.6l0.1-39.1h-11.3V365.3z"/>
		<path class="st0" d="M811.2,365.3h4.5v75h-4.5v-32.9c-0.2,0.1-4.5,3.9-12.9,11.3c-4.9,4.3-7.8,6.8-8.8,7.7h-3.3v-46.7h3.1
			c0.1,0,0.4,0.3,1,0.8c0,0,3.6,3.1,10.7,9.4c0.2,0.2,3.6,3.1,10.1,8.9V365.3z M790.8,386.8v32.4c0.1-0.1,6.3-5.5,18.5-16.2
			C809.3,402.9,803.1,397.5,790.8,386.8L790.8,386.8z"/>
		<path class="st0" d="M862.8,365.4h4.5V378h11.3v18.5h13.9v43.7H888v-39.1h-23.3v39.1h-4.5v-43.7h13.9v-14h-11.3V365.4z"/>
	</g>
</g>
</svg>
